PathFileType	4	(X/Y/Z)	70_2_92_p1_0-336_filt_butterworth.trc
DataRate	CameraRate	NumFrames	NumMarkers	Units	OrigDataRate	OrigDataStartFrame	OrigNumFrames
59.0	59.0	6	27	m	59.0	126	336
Frame#	Time	RHip			RKnee			RAnkle			RBigToe			RSmallToe			RHeel			LHip			LKnee			LAnkle			LBigToe			LSmallToe			LHeel			Neck			Head			Nose			RShoulder			RElbow			RWrist			RThumb			RIndex			RPinky			LShoulder			LElbow			LWrist			LThumb			LIndex			LPinky			
		X1	Y1	Z1	X2	Y2	Z2	X3	Y3	Z3	X4	Y4	Z4	X5	Y5	Z5	X6	Y6	Z6	X7	Y7	Z7	X8	Y8	Z8	X9	Y9	Z9	X10	Y10	Z10	X11	Y11	Z11	X12	Y12	Z12	X13	Y13	Z13	X14	Y14	Z14	X15	Y15	Z15	X16	Y16	Z16	X17	Y17	Z17	X18	Y18	Z18	X19	Y19	Z19	X20	Y20	Z20	X21	Y21	Z21	X22	Y22	Z22	X23	Y23	Z23	X24	Y24	Z24	X25	Y25	Z25	X26	Y26	Z26	X27	Y27	Z27	
126	2.135593220338983	0.3663998758330821	0.5155838413124506	0.14959842582498636	0.3309275242815178	0.6069031240467486	0.524823446913542	0.3688070275744515	0.7746284360213836	0.9466097524107492	0.3128945830486057	0.6303120921776753	1.0033236446685356	0.37687435101298417	0.6078970606069752	0.9891077887144284	0.38910509102286095	0.8595741617320293	0.9891982478603893	0.12952393465483253	0.5747916735352755	0.14790482605479216	0.1306046002440837	0.6920779714228054	0.5365491829147073	0.17560019147793277	0.8257046891457632	0.9636352845330006	0.15636069344814704	0.6249012846994446	0.977994803807455	0.10744995958028554	0.7076191234032227	0.9821918390495996	0.19866874899043724	0.8543704848866872	0.9899006760864517	0.24492140998527495	0.4031737962434744	-0.4396881621747114	0.208792556261891	0.2873265169934379	-0.6897384708046979	0.18599643647946473	0.270223372299693	-0.5287002913342902	0.4150306729207528	0.3718314841542577	-0.3398834127646922	0.46628412451807455	0.43420215717251054	-0.07515373980715245	0.3654090980692602	0.3391205730332029	0.14009144327681183	0.2609172951854402	0.3732503759986718	0.2303022747355543	0.2854141987047625	0.37743862858154503	0.2741312710768962	0.3584550550470178	0.4286759588675375	0.3050310677988505	0.08458301900339031	0.5067895384330314	-0.37057444425130087	0.014624980471732213	0.5607602578519099	-0.10777693980882233	0.043843839080040546	0.48509045407066653	0.12549814353598124	0.11033646005965092	0.44851159289768905	0.20892561747343236	0.10428364858066388	0.458816301824613	0.23600383717217316	0.04246981741294215	0.501060819855018	0.2456804846856704
127	2.152542372881356	0.3666214397141271	0.51563152907235	0.14943159394344877	0.33121150210820816	0.6080427458570583	0.5259690235720189	0.36879800141449165	0.7745926362648106	0.9466086475281289	0.31478936427954946	0.6350552260062077	1.0050947489001403	0.3774496198817729	0.6028096078649493	0.9882694078930863	0.38739835237300485	0.8539854978515615	0.9873843023960585	0.1293716524233344	0.5743888667867145	0.1474926979352937	0.13058449562724758	0.6919967400967804	0.5361240816258094	0.17560309549240788	0.8255817763720215	0.9636922411837128	0.156340110566277	0.6248295308198554	0.9779644484002987	0.10844641773879063	0.7079606902847368	0.982255111063145	0.19856090146745156	0.8539575034164939	0.9898805575201619	0.2449303489823081	0.40307941789476365	-0.4396899881606643	0.20806152836552416	0.2835343666827601	-0.6872956203429533	0.1860585637627702	0.269333157283178	-0.5271004086790728	0.41562125553062157	0.373142371378068	-0.33990117594152647	0.4665761327682255	0.43373270142078696	-0.07615932635425622	0.3652331609800035	0.3389641699461849	0.1401602375345769	0.2608076581467046	0.37299828260974055	0.2302925062670901	0.28522224985831285	0.3779726731674119	0.27353539498536716	0.35852961760446833	0.4287075581343359	0.30467324922493	0.08461074954453174	0.5069121657756285	-0.37020331085435987	0.01493405159200969	0.5593963203414031	-0.1078144508645585	0.04409377484510021	0.4847775191518031	0.12553385458734073	0.1100911207459197	0.44798322388678047	0.20733401870496687	0.10500033880023882	0.45837467753858846	0.23384218056182593	0.04240231408924693	0.5010945477863199	0.2456952722981218
128	2.169491525423729	0.36673279944030857	0.5157320856807677	0.14902241099577368	0.3314932728364053	0.6091376173065869	0.5272413749168583	0.36877280182244876	0.7745522850304558	0.94659533595425	0.3162078010948223	0.6386120417233008	1.0064332023532225	0.377879729763701	0.5990925410289409	0.9868823575372294	0.38505235316974984	0.8494305397086134	0.9858973932066659	0.12919263631804223	0.5738866271968546	0.1471757527337098	0.13114427182068222	0.6932020922233828	0.5353326726510288	0.17559414846896712	0.8254381024287774	0.9637652661194416	0.15629098976243777	0.6247169085349215	0.9783872305944619	0.10874995514037084	0.7079351044495064	0.9820948035954096	0.198477816171893	0.8533647941084221	0.9898987209563364	0.24496056091985374	0.4031066067122352	-0.4392273655908223	0.206767207944123	0.28030214566474565	-0.6851228654110102	0.18608357373032733	0.26733595902575025	-0.5242322593224351	0.41574503880044045	0.37361708912377367	-0.3398312252280292	0.4681951090139426	0.43479823417289376	-0.07660311508255875	0.36525979004887843	0.33896333688929464	0.14035494754600816	0.2605613406573009	0.37329241382272743	0.2303704396062352	0.2850013138147013	0.3776918957778209	0.2734108642665419	0.3587282508720293	0.4285921408264281	0.30375113419651645	0.08476440278552277	0.5077545996877343	-0.3683559236714373	0.014981590982507172	0.5594313000576141	-0.1087062580206196	0.04397053479691453	0.48450842635260216	0.12553954156074687	0.11027424963620225	0.44768829163933066	0.20604811358299252	0.10518211053092716	0.45782314737076135	0.23193853630351802	0.04225708503892625	0.5010936665653181	0.24615366394125743
129	2.1864406779661016	0.3666854490711287	0.515475798491532	0.14752173577115035	0.33160601882830415	0.6095700218468221	0.5280374947061697	0.36874730083306134	0.7745418075404246	0.9465780560516467	0.31674928380522704	0.6399405406177929	1.0069495444056842	0.37812291152610894	0.597578104607988	0.9853394797511348	0.38317567172224865	0.8472077129801063	0.9851701618530548	0.12904084450894854	0.5734523922973859	0.14627330901366334	0.13259980005390928	0.6965985639887212	0.5346084588515432	0.17558503712005383	0.8253334646976523	0.9638093480880516	0.15625735550018452	0.624711294401188	0.9795715314945845	0.10868951081093137	0.707784477720609	0.9820677199136412	0.19843154324030376	0.8529044450961558	0.9899254021909508	0.24500582422402772	0.4032671849872964	-0.4380359052544539	0.2054938106514705	0.2778275976677157	-0.6835991699885969	0.1860900616472903	0.2645967320337844	-0.5207006792922854	0.4157164800038192	0.37365374454175215	-0.3397157149799259	0.47114712444408924	0.4379285117623604	-0.07670006151676748	0.3658301315978813	0.33911731812511514	0.1404853571848599	0.2605573563093562	0.3745836568057617	0.23033232195716602	0.28478808644185183	0.37716265562743484	0.2731134230195518	0.3589844597605799	0.42831836560292535	0.3025356118690441	0.08485508282609487	0.5085690816566266	-0.3659003055251945	0.01495989492071042	0.5597392650519882	-0.10999288785379842	0.04379605955904278	0.4844109788487383	0.12551337098659618	0.11116116349628018	0.4478252464848509	0.2054934111003302	0.10532651296879408	0.4574589093000601	0.23074775503881523	0.04223421059225749	0.5011436510298588	0.24682052379300207
130	2.2033898305084745	0.3668937508807227	0.5149275710596778	0.14490425262177073	0.3317151541454977	0.6094494159259772	0.5287402547568096	0.3687346065560826	0.7745886974039349	0.9465677927449694	0.3167698242359027	0.639912954770002	1.0069597720348167	0.3782410779852336	0.5974299752000183	0.9842707327552013	0.38243215632951755	0.8474076050164758	0.9852247423427378	0.1292865763702415	0.5742489464189973	0.1450552126840346	0.13447977960124988	0.7013998678881103	0.5344961573709756	0.17558891070375268	0.8252948533899288	0.963822236608264	0.1563430172271048	0.625141317948526	0.9812428857503805	0.10874764334435945	0.7078528447721679	0.9829583000515452	0.198440003397199	0.8528036643460825	0.989951887231164	0.24504900822981357	0.40348096948753975	-0.4363807155031927	0.20438505056267328	0.2757873953584686	-0.6827102453140061	0.18604211666289955	0.26263718602450314	-0.5176152829872634	0.41566715692680806	0.37359327741666276	-0.3396960307878311	0.47431252291096565	0.4421962483276543	-0.07671870262543697	0.36708295115337447	0.33932889888928014	0.14023230622008692	0.2615246311908021	0.37761549470123595	0.23020341181458276	0.2846278298193322	0.3768923741257718	0.2722100925312647	0.35925544880694826	0.4280712091288281	0.3016002038937793	0.08451205779703595	0.5078258907564536	-0.36429646176474806	0.014922220478778359	0.5598804222723188	-0.1109865850437844	0.04370373560420465	0.48438332940263484	0.12547956943428282	0.11243720648114518	0.4482566047781463	0.20554665354883234	0.10578213178204557	0.45753973362546896	0.23060111186133397	0.042683140846918655	0.5022894144018817	0.24774109219741147
131	2.2203389830508478	0.36783990088630975	0.5144429964371396	0.14155583392755247	0.33206634545497743	0.6089164127682385	0.5288525703178644	0.36873473265529355	0.7747031064707305	0.9465699069457709	0.31674211751551284	0.6397580810407778	1.0068958346332197	0.37828123903280936	0.5976715426299076	0.9838871950810959	0.3828656249845741	0.8510042932320222	0.9863708933560481	0.13030289226895214	0.5773159143629693	0.14419674632114748	0.13591452516561356	0.7054622755887727	0.5350043588794907	0.17560381409765102	0.8253070509638203	0.963828106340559	0.15664602717993553	0.626224061854403	0.9826517616448818	0.10917356798005583	0.7083046947425283	0.9853043520119588	0.19854982452745745	0.8530492637169593	0.9899956468772024	0.2450740477575118	0.40367858919489996	-0.43490660322452995	0.20309209910839796	0.27291425507319894	-0.6820045273464466	0.186005065738316	0.2618414468882533	-0.5154942864719398	0.4156269090604331	0.3735790685285414	-0.3400689386558338	0.4764482786939213	0.4456894339875782	-0.07674693822671408	0.3684816301653841	0.3394442547734382	0.13925734464284073	0.2640078831736177	0.38171637119252755	0.2301017218373257	0.28495897730813885	0.3779753354024237	0.27101916719491004	0.35958295300849763	0.4281442978079075	0.3011765463188196	0.08348886961103401	0.5045280830696726	-0.3642121014389551	0.01489472982162332	0.5598697757708375	-0.1113689303502236	0.043785103794971206	0.4842735931048626	0.12546403027702768	0.11343086596993077	0.4486918805562221	0.20588288285631404	0.10628057760863228	0.45808891828182347	0.23159296987184594	0.04402560382050279	0.5059675921393504	0.24919252508919024
